# xmcd
#
# Track frame offsets: 
#        150
#        15366
#        35119
#        48434
#        74481
#        95911
#        109071
#        127353
#        146206
#        158778
#        178299
#
# Disc length: 2532 seconds
#
# Revision: 0
# Processed by: cddbd v1.5.2PL0 Copyright (c) Steve Scherf et al.
# Submitted via: ExactAudioCopyFreeDBPlugin 1.0
#
DISCID=ab09e20b
DTITLE=The Americans - I'll Be Yours
DYEAR=2017
DGENRE=Folk/Rock
TTITLE0=Nevada
TTITLE1=The Right Stuff
TTITLE2=Stowaway
TTITLE3=I'll Be Yours
TTITLE4=Last Chance
TTITLE5=Hooky
TTITLE6=Gone At Last
TTITLE7=Harbor Lane
TTITLE8=Long Way From Home
TTITLE9=Bronze Star
TTITLE10=Daphne
EXTD=
EXTT0=
EXTT1=
EXTT2=
EXTT3=
EXTT4=
EXTT5=
EXTT6=
EXTT7=
EXTT8=
EXTT9=
EXTT10=
PLAYORDER=
